<?xml version="1.0" standalone="no"?>
<!DOCTYPE svg PUBLIC "-//W3C//DTD SVG 20010904//EN"
 "http://www.w3.org/TR/2001/REC-SVG-20010904/DTD/svg10.dtd">
<svg version="1.0" xmlns="http://www.w3.org/2000/svg"
 width="600.000000pt" height="600.000000pt" viewBox="0 0 600.000000 600.000000"
 preserveAspectRatio="xMidYMid meet">

<g transform="translate(0.000000,600.000000) scale(0.100000,-0.100000)"
fill="#000000" stroke="none">
<path d="M2783 5390 c-299 -29 -574 -108 -843 -241 -717 -356 -1196 -1017
-1316 -1819 -13 -82 -18 -177 -18 -330 0 -216 8 -297 45 -487 l21 -101 -44
-88 c-39 -80 -43 -94 -43 -163 0 -66 4 -85 33 -144 57 -116 161 -174 296 -165
276 18 390 362 180 547 -26 22 -53 41 -60 41 -17 0 -17 2 -2 34 l11 26 34 -21
c19 -12 52 -22 73 -23 34 -1 40 -4 42 -26 4 -37 45 -40 58 -5 5 14 10 36 10
47 0 12 8 30 18 41 16 18 16 20 -6 36 -13 9 -39 33 -59 54 -40 41 -56 44 -111
21 -48 -20 -95 -66 -117 -114 l-18 -39 -71 0 c-40 0 -84 -5 -99 -10 -25 -10
-27 -9 -17 8 19 36 97 96 149 115 l51 18 0 293 c0 281 1 293 21 319 13 17 34
28 60 32 38 6 40 9 37 38 -2 23 -9 32 -24 34 -66 9 -94 117 -44 166 30 29 34
29 323 27 207 -1 208 -1 232 -26 19 -18 25 -35 25 -67 0 -54 -19 -83 -65 -98
-29 -10 -35 -16 -35 -41 0 -23 4 -29 23 -29 36 0 86 -36 93 -67 3 -15 7 -32 7
-36 1 -4 40 124 86 285 46 161 92 309 102 330 10 20 32 46 48 57 31 22 64 31
69 19 1 -5 2 -86 2 -180 l0 -173 -51 88 c-51 88 -79 110 -79 61 0 -34 97 -204
116 -204 11 0 14 -23 14 -118 0 -123 -6 -151 -116 -518 -8 -29 -41 -141 -72
-250 l-58 -199 -55 -3 -55 -3 4 -34 c3 -25 0 -36 -12 -41 -14 -5 -16 -29 -16
-169 0 -132 -3 -166 -15 -179 -8 -8 -15 -17 -15 -21 0 -3 75 -5 167 -4 204 1
223 8 223 81 0 45 15 58 25 20 14 -55 29 -62 142 -62 l103 0 0 -40 c0 -22 4
-40 9 -40 43 0 123 26 158 50 40 29 45 30 155 30 l113 0 0 78 c0 42 4 87 8
100 8 22 7 22 -81 22 l-89 0 -7 31 c-4 22 -11 30 -23 27 -10 -2 -19 -12 -22
-23 -2 -11 -8 -23 -15 -27 -6 -4 -68 -8 -138 -8 -132 0 -157 7 -159 48 -1 9
-1 433 -1 941 1 858 2 924 18 942 14 16 31 19 103 19 l86 0 -3 88 c-3 78 -1
91 20 122 l24 35 147 3 147 3 15 28 c8 16 22 31 30 35 9 3 76 6 149 6 140 0
152 -4 169 -52 6 -16 22 -18 151 -18 l145 0 23 -32 c20 -29 23 -45 23 -125 l0
-93 96 0 c80 0 99 -3 112 -18 15 -17 17 -82 19 -681 l3 -662 73 56 72 56 0
211 c0 193 2 212 20 238 29 40 83 63 131 55 38 -7 39 -6 30 17 -11 30 24 103
74 153 41 40 76 45 123 18 29 -17 31 -17 50 1 11 10 52 28 91 40 39 12 69 24
67 27 -2 2 23 5 57 7 51 3 66 8 95 33 30 26 40 30 71 24 20 -4 66 -22 104 -41
51 -26 79 -34 120 -34 78 0 164 -46 253 -135 111 -111 167 -249 166 -411 0
-108 -5 -120 -49 -129 -20 -4 -46 -14 -57 -22 -20 -15 -20 -15 -1 -8 11 5 35
10 53 13 25 3 32 1 32 -12 0 -11 -9 -16 -30 -16 -32 0 -70 -30 -70 -55 0 -21
-30 -19 -31 3 0 14 -2 14 -8 -3 -5 -11 -6 -26 -4 -32 4 -9 -6 -13 -31 -13 -43
0 -47 14 -8 28 l27 10 -27 1 c-28 1 -28 1 -44 131 -7 59 -55 219 -79 260 l-14
25 -1 -23 c0 -32 -34 -97 -86 -163 l-44 -57 19 -55 c39 -111 55 -218 55 -352
0 -76 -5 -148 -13 -174 -7 -23 -10 -45 -7 -48 2 -3 28 16 55 42 34 32 57 64
68 96 l17 48 50 -6 c38 -5 56 -13 74 -35 28 -33 45 -28 31 9 -10 28 -6 53 10
53 5 0 12 -12 15 -26 5 -20 10 -24 19 -15 29 29 86 -15 74 -59 -3 -13 0 -20 9
-20 10 0 14 -12 14 -38 0 -52 7 -56 46 -27 18 14 37 25 42 25 6 0 13 11 16 25
6 25 51 55 81 55 23 0 13 -24 -11 -29 -27 -5 -51 -28 -58 -57 -4 -13 -11 -24
-16 -24 -6 0 -10 -7 -10 -15 0 -8 -20 -33 -43 -55 -35 -31 -46 -51 -56 -93 -6
-29 -25 -81 -41 -115 l-29 -62 40 0 c39 0 41 2 63 53 13 28 36 90 52 137 16
47 30 86 30 88 1 2 19 -4 40 -13 21 -8 44 -13 51 -11 9 4 13 -4 13 -25 0 -69
58 -129 124 -129 27 0 36 -16 36 -68 1 -61 46 -99 106 -88 30 6 74 46 74 67 0
4 11 25 25 45 27 39 33 91 14 125 -8 16 -7 30 5 60 20 51 21 93 2 86 -18 -7
-31 24 -15 33 8 6 8 9 0 14 -6 4 -11 3 -11 -2 0 -6 -17 -1 -37 9 -26 13 -48
17 -70 13 -21 -4 -33 -2 -33 5 0 6 5 11 11 11 7 0 9 12 6 32 -3 18 0 54 6 80
8 38 7 55 -7 92 -17 45 -86 116 -113 116 -16 0 -17 21 -2 70 10 34 9 42 -10
69 -19 26 -67 61 -85 61 -2 0 -2 -8 1 -19 4 -17 2 -18 -34 -8 -38 10 -74 -2
-135 -45 -34 -24 -32 5 2 33 38 32 93 51 124 43 20 -5 21 -1 18 58 -21 529
-145 928 -412 1327 -377 563 -991 947 -1660 1037 -140 19 -422 26 -547 14z
m1407 -1790 c0 -5 -4 -10 -10 -10 -5 0 -10 5 -10 10 0 6 5 10 10 10 6 0 10 -4
10 -10z m-2156 -335 c10 -28 0 -146 -14 -155 -19 -12 -37 -2 -44 23 -8 29 -8
111 0 131 8 20 50 21 58 1z m0 -238 c10 -41 6 -919 -5 -938 -13 -25 -36 -24
-49 1 -7 13 -10 170 -8 485 3 388 5 467 17 474 20 13 38 3 45 -22z m3456 -127
c0 -6 -6 -10 -12 -10 -22 0 -41 17 -34 29 8 13 46 -3 46 -19z m-296 -6 c25 -9
19 -24 -9 -24 -16 0 -25 6 -25 15 0 16 9 19 34 9z m176 -20 c0 -8 -4 -12 -10
-9 -5 3 -10 10 -10 16 0 5 5 9 10 9 6 0 10 -7 10 -16z m-471 -142 c-32 -28
-34 -34 -32 -86 2 -53 -7 -70 -23 -45 -3 6 -6 33 -6 59 0 52 17 86 54 106 38
21 42 -2 7 -34z m-2966 -139 c17 -10 6 -23 -12 -13 -45 24 -69 -21 -30 -56 36
-32 49 -69 46 -128 l-2 -56 -67 0 -68 0 0 34 c0 27 33 161 55 224 4 10 14 12
37 7 18 -4 36 -9 41 -12z m3630 -128 c20 -8 38 -19 41 -24 10 -15 -11 -22 -22
-8 -14 17 -80 21 -98 6 -8 -7 -18 -9 -22 -5 -8 9 34 46 53 46 7 0 29 -7 48
-15z m-128 -18 c10 -8 14 -16 9 -19 -14 -9 -56 11 -49 22 8 13 18 13 40 -3z
m-4540 -11 c17 -12 17 -16 6 -30 -8 -10 -21 -14 -32 -11 -10 4 -28 1 -39 -5
-16 -8 -25 -8 -35 0 -43 35 54 80 100 46z m-118 -43 c3 -7 -8 -22 -22 -35 -50
-43 -80 -107 -85 -183 -4 -62 -7 -70 -25 -70 -18 0 -20 8 -23 68 -3 80 16 133
73 196 38 41 73 52 82 24z m1160 -165 c-3 -7 -5 -2 -5 12 0 14 2 19 5 13 2 -7
2 -19 0 -25z"/>
<path d="M4662 3554 c-12 -8 -31 -33 -42 -55 -22 -41 -72 -239 -61 -239 18 1
29 20 36 60 12 72 45 170 71 212 27 43 27 44 -4 22z"/>
<path d="M4235 3400 c-8 -12 16 -50 32 -50 17 0 16 20 -1 43 -15 19 -22 21
-31 7z"/>
<path d="M1727 3342 c-4 -19 7 -48 40 -105 58 -100 71 -113 90 -94 13 12 7 28
-44 115 -31 56 -63 104 -69 106 -7 3 -14 -7 -17 -22z"/>
<path d="M3923 3334 c0 -8 13 -24 28 -34 22 -16 28 -17 32 -6 6 15 -16 39 -44
49 -10 3 -16 -1 -16 -9z"/>
<path d="M4007 3276 c-3 -8 21 -40 58 -76 54 -53 65 -61 71 -46 5 13 -9 33
-52 77 -62 63 -69 67 -77 45z"/>
<path d="M4357 3273 c-14 -13 -7 -31 19 -48 38 -25 50 -4 16 28 -16 15 -31 24
-35 20z"/>
<path d="M4560 3230 c-252 -62 -696 -307 -964 -533 -72 -61 -206 -196 -206
-209 0 -3 -17 -12 -37 -19 -21 -6 -47 -18 -58 -25 -29 -21 -32 -18 -38 40 -6
59 -22 97 -63 145 -29 34 -63 41 -71 13 -4 -16 -12 -18 -56 -14 -31 2 -66 -1
-85 -9 l-33 -14 31 -43 c48 -66 106 -85 182 -58 34 12 37 12 42 -8 3 -12 6
-36 6 -54 l0 -34 -30 26 c-131 110 -318 -17 -271 -183 13 -47 28 -34 27 23 -1
73 18 77 22 5 l3 -57 44 -6 c62 -10 119 -54 140 -110 14 -37 22 -46 42 -46 29
0 48 -37 39 -75 -5 -18 -15 -27 -36 -32 -21 -4 -37 -18 -56 -50 -31 -53 -27
-59 53 -69 101 -12 213 18 263 72 22 22 30 24 127 24 86 0 106 3 121 18 16 17
20 17 88 -5 40 -12 96 -25 125 -29 l54 -7 -32 36 c-18 20 -35 54 -39 74 -4 21
-17 51 -30 66 -28 33 -29 40 -9 57 12 10 12 15 -5 38 -11 15 -21 45 -23 67 -2
22 -11 56 -21 75 -23 44 -20 42 -40 34 -15 -6 -12 -12 20 -45 46 -47 38 -50
-23 -8 l-46 32 -67 -22 c-83 -26 -92 -26 -88 1 2 17 18 26 73 45 217 72 523
240 765 419 150 111 312 274 346 349 25 53 26 61 13 84 -14 24 -20 26 -89 28
-41 1 -91 -2 -110 -7z m-1540 -785 c0 -11 -68 -73 -74 -68 -11 11 -7 20 20 47
24 23 54 35 54 21z"/>
<path d="M4151 3119 c5 -11 16 -16 25 -12 21 8 12 28 -14 29 -18 1 -20 -2 -11
-17z"/>
<path d="M1472 3078 c3 -7 23 -14 46 -16 33 -2 42 0 42 12 0 12 -11 16 -46 16
-32 0 -44 -4 -42 -12z"/>
<path d="M1646 3045 c-6 -25 2 -45 71 -162 25 -44 49 -55 59 -29 6 15 -102
216 -116 216 -4 0 -11 -11 -14 -25z"/>
<path d="M1473 3008 c2 -8 20 -13 42 -13 22 0 40 5 43 13 2 8 -10 12 -43 12
-33 0 -45 -4 -42 -12z"/>
<path d="M1290 2940 c0 -6 48 -11 120 -11 66 -1 125 -2 132 -3 6 -1 13 5 16
12 3 9 -28 12 -132 12 -84 0 -136 -4 -136 -10z"/>
<path d="M1470 2880 c0 -5 20 -10 45 -10 25 0 45 5 45 10 0 6 -20 10 -45 10
-25 0 -45 -4 -45 -10z"/>
<path d="M1477 2823 c-15 -15 -5 -23 28 -23 24 0 35 5 35 15 0 15 -50 22 -63
8z"/>
<path d="M1564 2745 c-4 -18 6 -47 40 -109 47 -85 66 -105 85 -82 7 9 4 24
-12 52 -72 131 -92 164 -99 164 -4 0 -10 -11 -14 -25z"/>
<path d="M1297 2753 c-19 -18 3 -23 108 -23 96 0 115 3 115 15 0 12 -19 15
-108 15 -60 0 -112 -3 -115 -7z"/>
<path d="M4368 2697 c-48 -34 -87 -66 -88 -70 0 -4 8 -11 18 -15 9 -4 18 -12
19 -18 1 -7 28 -47 59 -90 31 -44 79 -117 106 -164 28 -47 52 -87 54 -89 2 -2
22 1 45 8 l41 12 -7 82 c-9 98 -36 209 -65 269 -25 51 -83 138 -90 137 -3 0
-44 -28 -92 -62z"/>
<path d="M1477 2693 c-12 -11 -8 -23 8 -23 8 0 15 7 15 15 0 16 -12 20 -23 8z"/>
<path d="M1413 2663 c-22 -8 -14 -39 17 -73 l30 -32 10 27 c15 39 12 52 -12
69 -24 17 -26 17 -45 9z"/>
<path d="M4912 2480 l-22 -30 32 7 c42 8 43 8 26 32 -14 20 -15 20 -36 -9z"/>
<path d="M1460 2459 c0 -11 12 -40 26 -65 21 -36 31 -44 55 -44 l30 0 -27 48
c-35 60 -54 82 -71 82 -7 0 -13 -9 -13 -21z"/>
<path d="M3897 2414 c-45 -24 -48 -26 -30 -39 11 -8 22 -10 28 -4 5 5 18 9 30
9 17 0 17 2 5 10 -11 8 -7 9 15 4 35 -7 95 -35 145 -66 45 -28 40 -23 -48 51
-41 34 -79 61 -85 61 -7 -1 -34 -12 -60 -26z"/>
<path d="M4970 2049 l-34 -29 48 0 c38 0 46 3 38 13 -5 6 -11 19 -13 29 -3 13
-10 11 -39 -13z"/>
<path d="M390 1774 c0 -20 7 -51 16 -70 29 -62 44 -65 346 -67 l272 -2 74 -95
c207 -267 448 -475 739 -639 590 -331 1340 -392 1978 -159 235 86 488 228 690
388 115 91 298 278 394 403 l83 107 325 0 c366 0 369 1 398 72 14 35 21 98 11
98 -2 0 -20 -16 -39 -35 l-35 -35 -2587 0 -2587 0 -35 35 c-19 19 -37 35 -39
35 -2 0 -4 -16 -4 -36z m2111 -260 c55 -26 108 -77 134 -130 23 -47 32 -181
16 -242 -37 -137 -174 -202 -388 -186 l-93 6 0 283 c0 155 3 285 8 289 4 4 68
6 142 4 111 -3 143 -7 181 -24z m397 -259 c3 -317 6 -305 -77 -305 -79 0 -76
-10 -79 262 -2 134 -1 262 3 286 l6 43 72 -3 72 -3 3 -280z m502 220 l0 -65
-125 0 -125 0 0 -50 0 -50 95 0 95 0 0 -60 0 -60 -95 0 -95 0 0 -53 0 -54 118
1 117 1 3 -62 3 -63 -196 0 -195 0 0 213 c0 118 3 248 6 290 l7 77 193 0 194
0 0 -65z m486 42 c3 -13 4 -41 2 -63 l-3 -39 -72 -3 -73 -3 -2 -222 -3 -222
-72 -3 -73 -3 0 225 0 225 -72 3 -73 3 -3 57 c-2 47 0 57 15 61 10 3 109 5
220 6 l203 1 6 -23z"/>
<path d="M2310 1245 l0 -155 53 0 c94 0 147 55 147 152 0 92 -64 158 -151 158
l-49 0 0 -155z"/>
</g>
</svg>
