<?xml version="1.0" encoding="utf-8"?>
<!-- Generator: Adobe Illustrator 27.5.0, SVG Export Plug-In . SVG Version: 6.00 Build 0)  -->
<svg version="1.1" id="Capa_1" xmlns="http://www.w3.org/2000/svg" xmlns:xlink="http://www.w3.org/1999/xlink" x="0px" y="0px"
	 viewBox="0 0 2200 2047" style="enable-background:new 0 0 2200 2047;" xml:space="preserve">
<g>
	<path style="fill:#C7C4C7;" d="M1898.966,1561.833l-9.355-9.123c-72.403-70.603-90.156-87.915-90.156-87.915
		c-13.988-13.641-27.575-24.646-40.685-33.441c-0.583-6.567-1.186-13.134-1.826-19.701c12.799-2.587,27.475-5.552,44.373-8.967
		l12.809-2.588c99.124-20.032,123.429-24.944,123.429-24.944c152.392-30.796,153.138-134.432,148.984-161.823
		c-6.808-26.855-47.739-122.068-200.131-91.271c0,0-24.305,4.912-123.43,24.943l-12.808,2.588
		c-9.032,1.825-17.427,3.522-25.255,5.104c-13.413-101.676-26.826-203.351-40.239-305.027c-3.422-25.935-6.962-52.182-23.614-76.924
		c-20.775-30.865-61.349-57.609-112.445-79.164l0.131-0.006c0,0-110.806-37.299-63.787-147.351
		c-249.421,44.16-506.623,44.205-755.979,0.262c46.732,109.849-63.9,147.089-63.9,147.089l0.132,0.006
		c-51.097,21.555-91.671,48.299-112.446,79.164c-16.652,24.741-20.193,50.989-23.614,76.924
		c-17.592,133.35-35.182,266.701-52.775,400.051c-8.715,66.066-17.413,132.272-22.745,198.478
		c-27.355,8.749-57.803,26.742-90.254,59.457c0,0-17.463,17.605-88.681,89.403l-9.202,9.277
		c-71.218,71.798-88.68,89.403-88.68,89.403c-109.488,110.38-52.445,196.908-33.753,217.356
		c20.599,18.526,107.587,74.864,217.074-35.516c0,0,17.463-17.605,88.681-89.403l9.202-9.277c3.619-3.65,7.064-7.123,10.411-10.497
		c4.725,21.59,10.97,43.644,32.478,62.75c52.151,46.329,174.451,61.371,283.577,68.666c82.788,5.534,238.936,9.308,322.427,11.308
		c83.492-2,239.639-5.774,322.428-11.308c109.126-7.294,231.427-22.337,283.577-68.666c20.328-18.057,27.021-38.748,31.684-59.191
		c50.854,49.59,64.249,62.652,64.249,62.652c111.31,108.543,197.348,50.765,217.636,31.899
		c18.35-20.756,73.945-108.221-37.365-216.764C1989.123,1649.748,1971.37,1632.437,1898.966,1561.833z"/>
	<g>
		<path style="fill:#FFFFFF;" d="M1619.185,1649.661c-111.31-108.543-55.714-196.008-37.366-216.764
			c0.833-0.773,1.816-1.632,2.867-2.523c0.537,0.102,1.131,0.151,1.674,0.248c-78.5-14.061-103.432-73.86-108.605-94.263
			c-3.935-25.948-3.382-120.284,126.248-156.334c-10.692-81.044-21.383-162.088-32.075-243.133
			c-2.754-20.874-5.604-42-19.007-61.913c-0.068-0.102-0.138-0.204-0.207-0.306c-12.302-18.115-34.774-26.275-56.23-21.902
			c-40.531,8.262-86.59,12.703-130.063,15.609c-66.634,4.454-192.309,7.492-259.509,9.102
			c-67.198-1.609-192.874-4.648-259.507-9.102c-43.475-2.906-89.533-7.346-130.064-15.609c-21.455-4.373-43.924,3.786-56.227,21.898
			c-0.071,0.103-0.141,0.206-0.211,0.31c-13.401,19.913-16.251,41.039-19.005,61.913c-14.161,107.328-28.318,214.655-42.476,321.983
			c-9.269,70.256-18.503,140.708-21.496,211.098c0.919,0.761,1.779,1.494,2.525,2.166c15.799,17.284,58.978,81.777,5.86,167.977
			c1.886,11.807,3.975,23.609,6.532,35.399c3.827,17.638,8.738,35.708,26.322,51.329c41.974,37.288,140.408,49.395,228.239,55.265
			c66.632,4.454,192.309,7.492,259.507,9.101c67.199-1.609,192.875-4.647,259.509-9.101c87.83-5.87,186.264-17.978,228.238-55.265
			c17.583-15.621,22.495-33.691,26.322-51.329c1.46-6.73,2.765-13.464,4.001-20.2
			C1620.8,1651.236,1619.185,1649.661,1619.185,1649.661z"/>
	</g>
	<g>
		<path style="fill:#AEABAF;" d="M1578.037,1437.503c-0.159-2.89-0.313-5.781-0.492-8.67c-6.454-1.515-12.528-3.334-18.218-5.433
			c0.978,14.468,1.679,28.949,2.072,43.433C1566.609,1454.083,1572.96,1444.104,1578.037,1437.503z"/>
		<path style="fill:#C7C4C7;" d="M1558.727,1559.203c-2.176,23.479-5.602,46.895-10.658,70.196
			c-3.257,15.021-7.027,28.407-20.242,40.147c-36.157,32.12-128.27,41.712-194.411,46.134c-58.712,3.926-172.186,6.642-226.29,7.948
			c-54.53-1.306-168.003-4.023-226.713-7.948c-66.141-4.421-158.253-14.014-194.411-46.134
			c-13.211-11.737-16.984-25.126-20.242-40.147c-26.005-119.842-9.796-242.718,5.883-361.546l37.173-281.769
			c2.344-17.784,4.56-34.58,15.351-50.61c7.033-10.353,18.903-16.289,31.672-16.289c2.764,0,5.572,0.278,8.378,0.85
			c30.534,6.225,67.077,10.615,115.007,13.819c58.917,3.942,168.569,6.572,227.906,7.985c58.907-1.414,168.558-4.044,227.478-7.985
			c47.927-3.204,84.471-7.594,115.004-13.819c15.765-3.196,31.504,2.848,40.212,15.679c10.631,15.791,12.846,32.587,15.19,50.371
			l29.765,225.61c5.086-3.647,10.61-7.161,16.594-10.518l-28.685-217.426c-2.396-18.151-5.11-38.728-18.277-58.288
			c-12.605-18.563-35.517-27.536-58.361-22.892c-29.731,6.06-65.519,10.347-112.633,13.5c-58.539,3.912-167.942,6.537-226.288,7.948
			c-58.775-1.411-168.178-4.036-226.715-7.948c-47.114-3.149-82.905-7.439-112.637-13.5c-22.85-4.657-45.748,4.327-58.563,23.191
			c-12.961,19.263-15.675,39.837-18.072,57.988l-37.174,281.77c-15.875,120.343-32.293,244.785-5.63,367.661
			c3.638,16.767,8.628,34.415,25.827,49.692c39.796,35.353,130.492,45.609,205.058,50.591c59.092,3.952,172.822,6.677,227.903,7.985
			c54.656-1.309,168.385-4.033,227.481-7.985c74.567-4.982,165.263-15.238,205.061-50.591
			c17.196-15.283,22.187-32.928,25.824-49.692c3.025-13.942,5.466-27.904,7.443-41.878
			C1566.655,1580.202,1562.061,1569.496,1558.727,1559.203z"/>
	</g>
	<g>
		<path style="fill:#00A3E4;" d="M1898.966,1561.833l-9.355-9.123c-72.403-70.603-90.156-87.915-90.156-87.915
			c-23.434-22.852-45.73-38.261-66.546-48.284c-42.707,8.631-55.022,11.119-55.022,11.119c-37.416,7.561-68.079,7.498-93.201,2.743
			c-1.051,0.891-2.034,1.749-2.867,2.523c-18.349,20.756-73.944,108.221,37.366,216.764c0,0,17.753,17.312,90.155,87.915
			l9.356,9.123c72.403,70.603,90.155,87.915,90.155,87.915c111.31,108.543,197.348,50.765,217.636,31.899
			c18.35-20.756,73.945-108.221-37.365-216.764C1989.123,1649.748,1971.37,1632.437,1898.966,1561.833z"/>
		<path style="fill:#E0DBDE;" d="M1732.909,1416.511c-42.707,8.631-55.022,11.119-55.022,11.119
			c-37.416,7.561-68.079,7.498-93.201,2.743c-1.051,0.891-2.034,1.749-2.867,2.523c-18.349,20.756-73.944,108.221,37.366,216.764
			c0,0,19.234,18.755,99.511,97.038c82.83-34.395,147.971-101.196,180.27-184.866c-80.277-78.283-99.511-97.037-99.511-97.037
			C1776.021,1441.943,1753.725,1426.534,1732.909,1416.511z"/>
		<g>
			<path style="fill:#FFFFFF;" d="M1848.745,1559.502c-59.514-58.034-73.772-71.938-73.772-71.938
				c-82.519-80.468-146.303-37.634-161.343-23.648c-13.603,15.388-54.819,80.229,27.701,160.697c0,0,14.258,13.904,73.772,71.939
				C1776.507,1671.053,1824.8,1621.53,1848.745,1559.502z"/>
		</g>
		<g>
			<g>
				<path style="fill:#0073A1;" d="M1903.699,1605.572c21.009,19.438,41.85,39.082,62.261,59.149
					c12.364,12.156,24.847,24.301,34.899,38.501c14.738,20.821,25.057,45.221,28.284,70.612c3.14,24.712-1.201,51.91-18.927,70.527
					c-7.204,7.565,9.911,7.884,14.234,3.344c35.118-36.883,25.811-94.17,3.092-134.989c-19.34-34.748-51.466-61.442-80.016-88.427
					c-9.135-8.635-18.302-17.238-27.528-25.776C1915.226,1594.098,1898.628,1600.879,1903.699,1605.572L1903.699,1605.572z"/>
			</g>
		</g>
		<g>
			
				<ellipse transform="matrix(0.7071 -0.7071 0.7071 0.7071 -718.2549 1876.9076)" style="fill:#00B0E8;" cx="1906.5" cy="1805.464" rx="67.279" ry="67.279"/>
		</g>
		<g>
			<path style="fill:#00B0E8;" d="M1836.718,1722.648c-12.847-12.528-13.106-33.099-0.578-45.946
				c12.528-12.847,33.098-13.106,45.945-0.578c12.847,12.528,13.106,33.099,0.578,45.945
				C1870.136,1734.917,1849.565,1735.176,1836.718,1722.648z"/>
		</g>
	</g>
	<g>
		<g>
			<path style="fill:#00A3E4;" d="M1477.755,1336.36c6.808,26.855,47.74,122.067,200.131,91.271c0,0,24.305-4.912,123.43-24.944
				l12.808-2.588c99.125-20.032,123.43-24.944,123.43-24.944c152.391-30.796,153.138-134.432,148.984-161.823
				c-6.808-26.855-47.74-122.068-200.131-91.271c0,0-24.305,4.912-123.43,24.943l-12.808,2.589
				c-99.125,20.032-123.43,24.943-123.43,24.943C1474.348,1205.333,1473.601,1308.969,1477.755,1336.36z"/>
		</g>
		<g>
			<path style="fill:#E0DBDE;" d="M1801.316,1402.687c109.906-22.211,136.238-27.532,136.238-27.532
				c152.391-30.796,153.138-134.432,148.984-161.823c-6.808-26.855-47.74-122.068-200.131-91.271c0,0-26.331,5.321-136.238,27.532
				C1731.911,1237.402,1750.394,1328.858,1801.316,1402.687z"/>
		</g>
		<g>
			<path style="fill:#FFFFFF;" d="M1831.541,1362.51c81.479-16.466,101-20.411,101-20.411
				c112.974-22.831,113.528-99.661,110.448-119.967c-5.047-19.909-35.392-90.495-148.367-67.663c0,0-19.521,3.945-101,20.411
				C1780.088,1239.977,1793.789,1307.778,1831.541,1362.51z"/>
		</g>
		<g>
			<g>
				<path style="fill:#0073A1;" d="M1759.817,1386.855c-27.345,6.277-54.761,12.327-82.287,17.759
					c-16.749,3.304-33.532,6.75-50.669,6.841c-25.32,0.136-50.963-5.582-73.245-17.777c-21.716-11.887-39.688-31.015-44.984-55.699
					c-1.128-5.258-18.807-0.912-17.6,4.716c10.663,49.706,66.235,73.462,112.099,77.078c40.513,3.194,81.271-8.202,120.537-16.761
					c12.745-2.778,25.481-5.603,38.194-8.521c2.248-0.516,8.664-2.867,7.777-6.176
					C1768.733,1384.93,1761.855,1386.387,1759.817,1386.855L1759.817,1386.855z"/>
			</g>
		</g>
		<g>
			
				<ellipse transform="matrix(0.2436 -0.9699 0.9699 0.2436 -26.2338 2509.6277)" style="fill:#00B0E8;" cx="1595.799" cy="1271.632" rx="67.279" ry="67.279"/>
		</g>
		<g>
			<path style="fill:#00B0E8;" d="M1703.536,1260.647c17.589-3.555,34.729,7.822,38.283,25.411
				c3.555,17.589-7.822,34.729-25.411,38.283c-17.589,3.554-34.729-7.823-38.284-25.411
				C1674.57,1281.342,1685.948,1264.202,1703.536,1260.647z"/>
		</g>
	</g>
	<g>
		<g>
			<path style="fill:#00A3E4;" d="M580.454,1472.14c-20.599-18.526-107.587-74.864-217.075,35.516c0,0-17.462,17.605-88.68,89.403
				l-9.202,9.277c-71.218,71.798-88.68,89.403-88.68,89.403c-109.488,110.38-52.445,196.908-33.753,217.356
				c20.599,18.526,107.586,74.864,217.075-35.516c0,0,17.462-17.604,88.68-89.403l9.202-9.277
				c71.218-71.798,88.681-89.403,88.681-89.403C656.189,1579.115,599.146,1492.588,580.454,1472.14z"/>
		</g>
		<g>
			<path style="fill:#E0DBDE;" d="M274.699,1597.059c-78.964,79.608-97.883,98.68-97.883,98.68
				c-109.488,110.38-52.445,196.908-33.753,217.356c20.599,18.526,107.586,74.864,217.075-35.516c0,0,18.918-19.073,97.882-98.68
				C424.333,1695.779,358.09,1630.07,274.699,1597.059z"/>
		</g>
		<g>
			<path style="fill:#FFFFFF;" d="M271.939,1647.259c-58.54,59.017-72.565,73.156-72.565,73.156
				c-81.169,81.83-38.88,145.976-25.023,161.135c15.271,13.734,79.759,55.501,160.928-26.329c0,0,14.025-14.139,72.565-73.156
				C382.87,1720.444,333.761,1671.732,271.939,1647.259z"/>
		</g>
		<g>
			<g>
				<path style="fill:#0073A1;" d="M323.157,1584.508c18.903-20.084,37.997-40.012,57.48-59.535
					c11.57-11.593,23.121-23.445,36.376-33.141c19.904-14.56,43.516-24.827,68.126-27.567c24.013-2.673,48.885,3.076,66.558,20.193
					c4.134,4.005,20.681-2.533,16.4-6.68c-37.624-36.44-99.242-25.159-141.184-3.239c-36.497,19.075-64.38,51.88-92.546,81.143
					c-9.212,9.57-18.387,19.176-27.491,28.848c-2.93,3.112,2.501,4.583,4.627,4.642
					C315.698,1589.289,320.28,1587.565,323.157,1584.508L323.157,1584.508z"/>
			</g>
		</g>
		<g>
			
				<ellipse transform="matrix(0.4772 -0.8788 0.8788 0.4772 -1127.681 1287.6478)" style="fill:#00B0E8;" cx="518.385" cy="1591.602" rx="67.279" ry="67.279"/>
		</g>
		<g>
			<path style="fill:#00B0E8;" d="M434.977,1660.676c-12.637,12.74-33.21,12.824-45.95,0.186
				c-12.74-12.637-12.823-33.209-0.186-45.949c12.637-12.74,33.209-12.823,45.949-0.186
				C447.53,1627.364,447.614,1647.936,434.977,1660.676z"/>
		</g>
	</g>
	<path style="fill:#00A3E4;" d="M1106.914,301.438c-251.367,0-458.138-39.126-483.229-89.282h-2.561v312.865l38.125,8.029
		c288.727,60.804,590.107,61.823,879.38,2.973l54.078-11.001V212.156h-2.561C1565.053,262.312,1358.282,301.438,1106.914,301.438z"
		/>
	<g>
		<ellipse style="fill:#0093CA;" cx="1106.914" cy="201.882" rx="485.791" ry="99.556"/>
	</g>
	<g>
		<g>
			<path style="fill:#AEABAF;" d="M694.608,709.387c103.19,28.913,209.102,46.397,316.107,52.303
				c106.736,5.89,214.273,0.082,319.763-17.217c59.761-9.799,118.939-23.224,177.038-40.311c4.729-1.391,16.724-5.519,15.116-12.457
				c-1.549-6.688-15.358-4.396-19.32-3.231c-98.297,28.91-199.746,47.231-302.002,54.026
				c-102.783,6.83-206.221,2.744-308.097-12.536c-57.654-8.647-114.849-20.733-170.992-36.463
				c-8.069-2.26-17.067-0.743-24.311,3.498C694.429,699.038,686.419,707.092,694.608,709.387L694.608,709.387z"/>
		</g>
	</g>
	<g>
		<g>
			<path style="fill:#AEABAF;" d="M745.069,602.109c90.383,25.312,183.095,40.643,276.819,45.819
				c93.453,5.16,187.636,0.088,279.996-15.074c52.378-8.599,104.247-20.35,155.171-35.32c4.73-1.391,16.724-5.519,15.117-12.458
				c-1.55-6.688-15.358-4.395-19.32-3.23c-85.535,25.145-173.816,41.15-262.801,47.038c-89.517,5.923-179.578,2.394-268.307-10.906
				c-50.257-7.533-100.122-18.048-149.063-31.754c-8.069-2.259-17.067-0.743-24.312,3.498
				C744.89,591.76,736.878,599.815,745.069,602.109L745.069,602.109z"/>
		</g>
	</g>
	<g>
		<g>
			<g>
				<path style="fill:#0073A1;" d="M656.163,275.022c0,65.89,0,131.779,0,197.669c0,7.65,17.639,4.083,17.639-2.055
					c0-65.89,0-131.78,0-197.669C673.801,265.317,656.163,268.883,656.163,275.022L656.163,275.022z"/>
			</g>
		</g>
		<g>
			<g>
				<path style="fill:#0073A1;" d="M742.29,309.845c0,65.89,0,131.779,0,197.669c0,7.649,17.639,4.084,17.639-2.056
					c0-65.889,0-131.779,0-197.669C759.929,300.14,742.29,303.706,742.29,309.845L742.29,309.845z"/>
			</g>
		</g>
		<g>
			<g>
				<path style="fill:#0073A1;" d="M828.417,340.243c0,65.889,0,131.779,0,197.669c0,7.649,17.639,4.083,17.639-2.056
					c0-65.89,0-131.779,0-197.669C846.057,330.538,828.417,334.104,828.417,340.243L828.417,340.243z"/>
			</g>
		</g>
		<g>
			<g>
				<path style="fill:#0073A1;" d="M944.195,350.471c0,65.89,0,131.779,0,197.669c0,7.649,17.639,4.083,17.639-2.056
					c0-65.889,0-131.779,0-197.669C961.834,340.766,944.195,344.333,944.195,350.471L944.195,350.471z"/>
			</g>
		</g>
		<g>
			<g>
				<path style="fill:#0073A1;" d="M1331.062,334.596c0,65.889,0,131.779,0,197.669c0,7.649,17.639,4.083,17.639-2.056
					c0-65.89,0-131.779,0-197.669C1348.701,324.891,1331.062,328.457,1331.062,334.596L1331.062,334.596z"/>
			</g>
		</g>
		<g>
			<g>
				<path style="fill:#0073A1;" d="M1438.369,309.845c0,65.89,0,131.779,0,197.669c0,7.649,17.639,4.084,17.639-2.056
					c0-65.889,0-131.779,0-197.669C1456.007,300.14,1438.369,303.706,1438.369,309.845L1438.369,309.845z"/>
			</g>
		</g>
		<g>
			<g>
				<path style="fill:#0073A1;" d="M1540.027,295.078c0,65.89,0,131.779,0,197.669c0,7.65,17.639,4.083,17.639-2.055
					c0-65.89,0-131.78,0-197.669C1557.666,285.373,1540.027,288.94,1540.027,295.078L1540.027,295.078z"/>
			</g>
		</g>
		<g>
			<g>
				<path style="fill:#0073A1;" d="M1071.269,350.471c0,65.89,0,131.779,0,197.669c0,7.649,17.639,4.083,17.639-2.056
					c0-65.889,0-131.779,0-197.669C1088.907,340.766,1071.269,344.333,1071.269,350.471L1071.269,350.471z"/>
			</g>
		</g>
		<g>
			<g>
				<path style="fill:#0073A1;" d="M1198.342,350.471c0,65.89,0,131.779,0,197.669c0,7.649,17.639,4.083,17.639-2.056
					c0-65.889,0-131.779,0-197.669C1215.98,340.766,1198.342,344.333,1198.342,350.471L1198.342,350.471z"/>
			</g>
		</g>
	</g>
	<g>
		<path style="fill:#00B0E8;" d="M1207.161,173.425c0,18.57-82.81,33.623-184.962,33.623c-102.151,0-184.962-15.053-184.962-33.623
			c0-18.569,82.81-33.622,184.962-33.622C1124.351,139.803,1207.161,154.856,1207.161,173.425z"/>
	</g>
	<g>
		<path style="fill:#00B0E8;" d="M1333.142,229.58c0,8.946-39.896,16.198-89.111,16.198c-49.214,0-89.111-7.252-89.111-16.198
			c0-8.947,39.896-16.199,89.111-16.199C1293.246,213.381,1333.142,220.633,1333.142,229.58z"/>
	</g>
	<g>
		<g>
			<path style="fill:#00A3E4;" d="M1106.914,1029.418c-110.861,0-200.733,89.871-200.733,200.733
				c0,110.862,89.872,200.733,200.733,200.733c110.862,0,200.733-89.872,200.733-200.733
				C1307.648,1119.29,1217.776,1029.418,1106.914,1029.418z M1195.432,1269.621c0,0-22.164,0-49.048,0v10.551
				c0,30.916,0,38.497,0,38.497c0,47.53-31.009,54.03-39.469,54.444c-8.46-0.414-39.469-6.914-39.469-54.444c0,0,0-7.581,0-38.498
				v-10.55h-10.552c-30.917,0-38.497,0-38.497,0c-47.529,0-54.029-31.01-54.443-39.47c0.414-8.459,6.914-39.47,54.443-39.47
				c0,0,7.581,0,38.497,0h10.552c0-26.883,0-49.048,0-49.048c0-47.53,31.009-54.03,39.469-54.444
				c8.46,0.414,39.469,6.914,39.469,54.444c0,0,0,22.165,0,49.048c26.884,0,49.048,0,49.048,0c47.53,0,54.031,31.01,54.444,39.47
				C1249.462,1238.612,1242.962,1269.621,1195.432,1269.621z"/>
		</g>
	</g>
	<g>
		<g>
			<path style="fill:#00A3E4;" d="M863.95,1504.156c-4.592-1.226-10.184,0.268-13.554,3.732l-48,49.328
				c-17.987-18.485-35.976-36.971-53.963-55.456c-3.323-3.416-8.918-2.917-12.902-1.019c-2.66,1.267-8.095,5.904-4.735,9.357
				l19.26,19.794c-0.787,0.669-1.292,1.402-1.292,2.207v100.541c0,2.437,11.654,5.161,11.654,0l0.607-91.991l32.217,33.623
				c3.325,3.416,8.92,2.917,12.902,1.019c2.09-0.995,5.83-4.067,5.736-7.014l26.141-28.349v92.711c0,2.501,12.133,5.205,12.133,0
				v-103.696l15.976-16.418C869.067,1509.508,867.999,1505.237,863.95,1504.156z"/>
		</g>
		<g>
			<path style="fill:#00A3E4;" d="M937.227,1513.006c4.169,0,10.295,0.083,10.841-4.495c0.606-5.094-5.304-6.167-8.981-6.167
				l-39.308,3.124l-6.963,0.265c-0.57-0.031-1.104-0.018-1.625,0.062l-3.27,0.125c-3.844,0.849-8.17,0.398-8.624,4.213
				c-0.589,4.939,4.934,3.016,8.624,2.894v48.494c-3.844,0.849-8.17,0.398-8.624,4.214c-0.589,4.938,4.934,3.015,8.624,2.893v56.326
				c-3.844,0.848-8.17,0.398-8.624,4.213c-0.608,5.093,5.304,2.872,8.981,2.872h48.949c4.169,0,10.295,0.083,10.841-4.495
				c0.606-5.094-5.304-6.167-8.981-6.167l-39.308,3.124v-55.896h37.448c4.169,0,10.295,0.083,10.841-4.495
				c0.606-5.094-5.304-6.167-8.981-6.167l-39.308,3.124v-48.063H937.227z"/>
		</g>
		<g>
			<path style="fill:#00A3E4;" d="M1465.962,1568.55c3.968,0,9.8,0.079,10.319-4.279c0.578-4.849-5.049-5.871-8.55-5.871
				l-37.421,2.975v-45.756h35.652c3.968,0,9.8,0.079,10.319-4.279c0.578-4.849-5.049-5.871-8.55-5.871l-37.421,2.974l-6.629,0.252
				c-0.542-0.029-1.051-0.016-1.547,0.059l-3.113,0.118c-3.66,0.808-7.778,0.379-8.21,4.011c-0.56,4.702,4.697,2.871,8.21,2.754
				v46.166c-3.66,0.808-7.778,0.379-8.21,4.011c-0.56,4.701,4.697,2.871,8.21,2.754v53.623c-3.66,0.807-7.778,0.379-8.21,4.011
				c-0.578,4.849,5.049,2.735,8.55,2.735h46.601c3.968,0,9.8,0.078,10.319-4.279c0.578-4.849-5.049-5.871-8.55-5.871l-37.421,2.975
				v-53.212H1465.962z"/>
		</g>
		<g>
			<path style="fill:#00A3E4;" d="M1088.149,1502.581v132.757c0,1.89,11.394,0.266,11.394-3.053v-132.757
				C1099.543,1497.638,1088.149,1499.261,1088.149,1502.581z"/>
		</g>
		<g>
			<path style="fill:#00A3E4;" d="M1242.141,1502.581v132.757c0,1.89,11.393,0.266,11.393-3.053v-132.757
				C1253.534,1497.638,1242.141,1499.261,1242.141,1502.581z"/>
		</g>
		<g>
			<path style="fill:#00A3E4;" d="M1060.095,1531.825c-5.767-12.557-17.093-20.103-30.052-23.896
				c-15.042-4.402-31.054-4.214-46.565-3.214v-5.234c0-1.946-11.731-0.274-11.731,3.143v132.757c0,1.946,11.731,0.274,11.731-3.143
				v-0.813c33.276,1.075,72.74-10.089,80.615-46.813c1.889-8.8,1.85-17.952,1.111-26.884
				C1064.489,1549.035,1063.778,1539.847,1060.095,1531.825z M1053.877,1573.351c-0.481,16.235-6.232,32.366-20.309,41.574
				c-14.632,9.572-32.96,10.964-49.957,9.841c-0.042-0.003-0.088,0.005-0.132,0.003v-113.863
				c21.218-1.241,47.875-0.485,61.458,18.16C1053.622,1540.988,1054.298,1559.148,1053.877,1573.351z"/>
		</g>
		<g>
			<path style="fill:#00A3E4;" d="M1204.088,1628.976c-19.163,1.432-39.734-2.447-53.867-16.373
				c-15.865-15.633-16.222-40.441-14.154-61.06c1.689-16.836,5.7-33.551,22.485-41.179c12.921-5.872,28.321-5.205,42.132-4.154
				c4.412,0.336,12.583-5.917,4.645-6.52c-25.22-1.918-57.971-0.118-72.944,23.837c-9.238,14.78-9.772,35.546-8.949,52.472
				c0.908,18.698,7.661,36.613,23.538,47.496c16.173,11.086,36.353,13.247,55.444,11.82
				C1208.148,1634.887,1212.302,1628.362,1204.088,1628.976z"/>
		</g>
		<g>
			<path style="fill:#00A3E4;" d="M1370.14,1621.232c-0.172-40.699-0.959-81.394-0.975-122.094
				c-0.002-5.785-11.212-4.139-11.211,0.842c0.014,34.259,0.592,68.516,0.879,102.774c-18.773-31.816-35.661-64.777-55.635-95.864
				v-8.001c0-3.214-5.141-3.117-8.417-1.559c-3.531,0.287-8.875,2.901-8.331,3.712c1.947,2.897,3.785,5.86,5.671,8.795v125.728
				c0,4.695,11.077,2.404,11.077-1.34v-106.532c15.84,26.502,30.235,53.884,46.012,80.423c-0.02,0.079-0.123,0.181-0.083,0.243
				c3.509,5.312,6.633,10.854,9.817,16.364c0.011,3.531,0.051,7.062,0.052,10.593c0.002,4.406,6.479,4.485,9.579,2.079
				c1.211-0.158,2.433-0.538,3.604-1.015c3.157-0.709,6.473-1.985,5.815-2.967
				C1375.297,1629.398,1372.722,1625.313,1370.14,1621.232z"/>
		</g>
	</g>
</g>
</svg>
